<?xml version="1.0" encoding="utf-8"?>
<!-- Generator: Adobe Illustrator 22.0.0, SVG Export Plug-In . SVG Version: 6.00 Build 0)  -->
<svg version="1.1" id="Layer_1" xmlns="http://www.w3.org/2000/svg" xmlns:xlink="http://www.w3.org/1999/xlink" x="0px" y="0px"
	 viewBox="0 0 300 300" style="enable-background:new 0 0 300 300;" xml:space="preserve">
<style type="text/css">
	.st0{fill:#808285;}
	.st1{fill:#D1D3D4;stroke:#231F20;stroke-width:5.8599;stroke-linejoin:round;stroke-miterlimit:10;}
	.st2{fill:none;stroke:#231F20;stroke-width:5.8599;stroke-linejoin:round;stroke-miterlimit:10;}
	.st3{fill:#F1F2F2;}
	.st4{fill:#939598;}
	.st5{fill:#19B590;}
</style>
<g>
	<rect x="50.1" y="92.4" class="st0" width="201.5" height="19.9"/>
	<rect x="49.2" y="168.1" class="st0" width="201.5" height="19.9"/>
	<rect x="48.2" y="243.7" class="st0" width="201.5" height="19.9"/>
	<rect x="35" y="36.6" class="st1" width="232.7" height="55.8"/>
	<rect x="34" y="112.3" class="st1" width="232.7" height="55.8"/>
	<rect x="33.1" y="187.9" class="st1" width="232.7" height="55.8"/>
	<line class="st2" x1="22.7" y1="263.6" x2="280" y2="263.6"/>
	<line class="st2" x1="51.1" y1="47.9" x2="51.1" y2="77.3"/>
	<line class="st2" x1="63.4" y1="47.9" x2="63.4" y2="77.3"/>
	<line class="st2" x1="75.7" y1="47.9" x2="75.7" y2="77.3"/>
	<line class="st2" x1="88" y1="47.9" x2="88" y2="77.3"/>
	<line class="st2" x1="100.3" y1="47.9" x2="100.3" y2="77.3"/>
	<rect x="111.6" y="47.9" class="st3" width="140" height="15.1"/>
	<path class="st4" d="M241,67.1c0,7.9-6.4,14.3-14.3,14.3c-7.9,0-14.3-6.4-14.3-14.3c0-7.9,6.4-14.3,14.3-14.3
		C234.7,52.8,241,59.2,241,67.1z"/>
	<line class="st2" x1="222.3" y1="66.8" x2="232.7" y2="66.8"/>
	<path class="st4" d="M79.3,139.9c0,7.9-6.4,14.3-14.3,14.3c-7.9,0-14.3-6.4-14.3-14.3c0-7.9,6.4-14.3,14.3-14.3
		C72.9,125.7,79.3,132.1,79.3,139.9z"/>
	<line class="st2" x1="60.5" y1="139.7" x2="70.9" y2="139.7"/>
	<path class="st4" d="M125.6,139.9c0,7.9-6.4,14.3-14.3,14.3c-7.9,0-14.3-6.4-14.3-14.3c0-7.9,6.4-14.3,14.3-14.3
		C119.2,125.7,125.6,132.1,125.6,139.9z"/>
	<line class="st2" x1="106.9" y1="139.7" x2="117.3" y2="139.7"/>
	<path class="st4" d="M170.1,139.9c0,7.9-6.4,14.3-14.3,14.3c-7.9,0-14.3-6.4-14.3-14.3c0-7.9,6.4-14.3,14.3-14.3
		C163.7,125.7,170.1,132.1,170.1,139.9z"/>
	<line class="st2" x1="151.3" y1="139.7" x2="161.7" y2="139.7"/>
	<line class="st2" x1="111.6" y1="72.5" x2="186.3" y2="72.5"/>
	<line class="st2" x1="193" y1="72.5" x2="202.4" y2="72.5"/>
	<rect x="116.3" y="50.8" class="st5" width="3.8" height="9.5"/>
	<rect x="125.8" y="50.8" class="st5" width="3.8" height="9.5"/>
	<rect x="135.3" y="50.8" class="st5" width="3.8" height="9.5"/>
	<rect x="144.7" y="50.8" class="st5" width="3.8" height="9.5"/>
	<rect x="154.2" y="50.8" class="st5" width="3.8" height="9.5"/>
	<rect x="163.6" y="50.8" class="st0" width="3.8" height="9.5"/>
	<rect x="173.1" y="50.8" class="st0" width="3.8" height="9.5"/>
	<rect x="182.6" y="50.8" class="st0" width="3.8" height="9.5"/>
	<rect x="192" y="50.8" class="st0" width="3.8" height="9.5"/>
	<rect x="202.4" y="50.8" class="st0" width="3.8" height="9.5"/>
	<rect x="184.5" y="125.5" class="st3" width="11.4" height="17"/>
	<rect x="203.4" y="125.5" class="st5" width="11.4" height="17"/>
	<rect x="222.3" y="125.5" class="st3" width="11.4" height="17"/>
	<rect x="241.2" y="125.5" class="st5" width="11.4" height="17"/>
	<line class="st2" x1="190.1" y1="134" x2="190.1" y2="153.9"/>
	<line class="st2" x1="209" y1="134" x2="209" y2="153.9"/>
	<line class="st2" x1="228" y1="134" x2="228" y2="153.9"/>
	<line class="st2" x1="246.9" y1="134" x2="246.9" y2="153.9"/>
	<line class="st2" x1="184.5" y1="134" x2="195.8" y2="134"/>
	<line class="st2" x1="203.4" y1="134" x2="214.7" y2="134"/>
	<line class="st2" x1="222.3" y1="134" x2="233.6" y2="134"/>
	<line class="st2" x1="241.2" y1="134" x2="252.6" y2="134"/>
	<rect x="173.1" y="200.2" class="st3" width="77.6" height="29.3"/>
	<path class="st4" d="M77.4,215.6c0,7.9-6.4,14.3-14.3,14.3c-7.9,0-14.3-6.4-14.3-14.3c0-7.9,6.4-14.3,14.3-14.3
		C71,201.4,77.4,207.7,77.4,215.6z"/>
	<line class="st2" x1="58.6" y1="215.4" x2="69" y2="215.4"/>
	<line class="st2" x1="185.4" y1="200.2" x2="185.4" y2="229.6"/>
	<line class="st2" x1="179.7" y1="200.2" x2="191.1" y2="200.2"/>
	<line class="st2" x1="201.5" y1="229.6" x2="201.5" y2="200.2"/>
	<line class="st2" x1="207.2" y1="229.6" x2="195.8" y2="229.6"/>
	<line class="st2" x1="223.2" y1="200.2" x2="223.2" y2="229.6"/>
	<line class="st2" x1="217.6" y1="200.2" x2="228.9" y2="200.2"/>
	<line class="st2" x1="239.3" y1="229.6" x2="239.3" y2="200.2"/>
	<line class="st2" x1="245" y1="229.6" x2="233.6" y2="229.6"/>
	<line class="st2" x1="89.9" y1="205.9" x2="162.7" y2="205.9"/>
	<line class="st2" x1="89.9" y1="215.4" x2="162.7" y2="215.4"/>
	<line class="st2" x1="89.9" y1="224.8" x2="162.7" y2="224.8"/>
</g>
</svg>
